<svg id="Component_2_1" data-name="Component 2 – 1" xmlns="http://www.w3.org/2000/svg" width="31" height="31" viewBox="0 0 31 31">
  <g id="Trailing_icon" data-name="Trailing icon">
    <rect id="Boundary" width="31" height="31" fill="none"/>
    <path id="_Color" data-name=" ↳Color" d="M14.214,19.429A15.134,15.134,0,0,1,5.523,16.7,15.325,15.325,0,0,1,0,9.714,15.324,15.324,0,0,1,5.523,2.725a15.224,15.224,0,0,1,17.383,0,15.325,15.325,0,0,1,5.522,6.989,15.325,15.325,0,0,1-5.522,6.99A15.134,15.134,0,0,1,14.214,19.429Zm0-16.191a6.476,6.476,0,1,0,6.462,6.476A6.475,6.475,0,0,0,14.214,3.238Zm0,10.362a3.886,3.886,0,1,1,3.877-3.886A3.886,3.886,0,0,1,14.214,13.6Z" transform="translate(1.286 5.786)" fill="rgba(0,0,0,0.6)"/>
  </g>
  <line id="Line_7" data-name="Line 7" x1="21.273" y2="25.857" transform="translate(4.863 2.571)" fill="none" stroke="#707070" stroke-width="1"/>
</svg>
