<svg xmlns="http://www.w3.org/2000/svg" width="52.18" height="52.18" viewBox="0 0 52.18 52.18">
  <g id="Group_4528" data-name="Group 4528" opacity="0.94">
    <g id="_FLAT" data-name="/ FLAT" transform="translate(1.018 1.018)">
      <path id="Path_2526" data-name="Path 2526" d="M41.454,0H1.727A1.727,1.727,0,0,0,0,1.727V31.09H43.181V1.727A1.727,1.727,0,0,0,41.454,0Z" transform="translate(3.454 17.272)" fill="#dfdfdf"/>
      <path id="Path_2527" data-name="Path 2527" d="M0,16.423H18.829V0A32.918,32.918,0,0,1,0,16.423Z" transform="translate(27.806 31.94)" fill="#bebebe"/>
      <path id="Path_2528" data-name="Path 2528" d="M3.454,0H0V6.045H27.636V0Z" transform="translate(11.227 25.045)" fill="#31c292"/>
      <path id="Path_2529" data-name="Path 2529" d="M2.591,0A2.591,2.591,0,0,0,0,2.591V27.636H20.727V2.591A2.591,2.591,0,0,1,23.318,0Z" transform="translate(14.682)" fill="#338dbf"/>
      <path id="Path_2530" data-name="Path 2530" d="M5.182,11.227V2.591A2.591,2.591,0,0,0,2.591,0h0A2.591,2.591,0,0,0,0,2.591V13.818H7.773a2.591,2.591,0,0,1-2.591-2.591Z" transform="translate(35.409 0)" fill="#0071af"/>
      <path id="Path_2531" data-name="Path 2531" d="M2.159,0h0A2.159,2.159,0,0,1,4.318,2.159v4.75H0V2.159A2.159,2.159,0,0,1,2.159,0Z" transform="translate(45.772 2.591)" fill="#00a16c"/>
      <path id="Path_2532" data-name="Path 2532" d="M48.363,5.182H1.727A1.727,1.727,0,0,1,0,3.454V0H19.148a1.727,1.727,0,0,1,1.221.506l.715.715a1.727,1.727,0,0,0,1.221.506h5.478a1.727,1.727,0,0,0,1.221-.506l.715-.715A1.727,1.727,0,0,1,30.942,0H50.09V3.454A1.727,1.727,0,0,1,48.363,5.182Z" transform="translate(0 44.908)" fill="#bebebe"/>
      <path id="Path_2533" data-name="Path 2533" d="M0,0V8.636a2.591,2.591,0,1,0,5.182,0V2.159A2.159,2.159,0,0,1,7.341,0Z" transform="translate(40.59 2.591)" fill="#5ca4cc"/>
      <path id="Path_2534" data-name="Path 2534" d="M2.159,0A2.159,2.159,0,0,0,0,2.159v4.75H4.318V2.159A2.159,2.159,0,0,0,2.159,0Z" transform="translate(45.772 2.591)" fill="#0071af"/>
      <path id="Path_2535" data-name="Path 2535" d="M2.443,1.98a.864.864,0,0,0-1.221,0L0,.759a2.591,2.591,0,0,1,3.664,0Z" transform="translate(23.213 40.59)" fill="#00b378"/>
      <path id="Path_2536" data-name="Path 2536" d="M7.328,2.992a4.318,4.318,0,0,0-6.107,0L0,1.771a6.046,6.046,0,0,1,8.55,0Z" transform="translate(20.77 37.136)" fill="#00b378"/>
      <path id="Path_2537" data-name="Path 2537" d="M12.213,4A7.772,7.772,0,0,0,1.221,4L0,2.783a9.5,9.5,0,0,1,13.435,0Z" transform="translate(18.328 33.681)" fill="#00b378"/>
      <path id="Path_2538" data-name="Path 2538" d="M0,0V12.091H15.545V0ZM13.818,3.454H11.227V1.727h2.591ZM11.227,5.182h2.591V6.909H11.227ZM9.5,6.909H1.727V5.182H9.5Zm0-5.182V3.454H1.727V1.727ZM1.727,8.636H9.5v1.727H1.727Zm9.5,1.727V8.636h2.591v1.727Z" transform="translate(17.272 7.773)" fill="#7db6d6"/>
      <rect id="Rectangle_3126" data-name="Rectangle 3126" width="8.636" height="1.727" transform="translate(17.272 22.454)" fill="#7db6d6"/>
      <rect id="Rectangle_3127" data-name="Rectangle 3127" width="10.363" height="1.727" transform="translate(19.863 3.454)" fill="#7db6d6"/>
      <path id="Path_2539" data-name="Path 2539" d="M0,5.182H31.09a1.727,1.727,0,0,0,1.727-1.727V0H17.706A32.663,32.663,0,0,1,0,5.182Z" transform="translate(17.272 44.908)" fill="#a2a2a2"/>
      <path id="Path_2540" data-name="Path 2540" d="M0,20.727H20.727V0A20.727,20.727,0,0,1,0,20.727Z" transform="translate(14.682 6.909)" fill="#2c78a3"/>
      <path id="Path_2541" data-name="Path 2541" d="M0,0V5.182A2.591,2.591,0,0,0,4.422,7.015,7.773,7.773,0,0,1,0,0Z" transform="translate(40.59 6.045)" fill="#4e8cae"/>
      <path id="Path_2542" data-name="Path 2542" d="M0,0V4.318H4.318A4.318,4.318,0,0,1,0,0Z" transform="translate(45.772 5.182)" fill="#006095"/>
      <path id="Path_2543" data-name="Path 2543" d="M0,0V7.773H7.773A7.773,7.773,0,0,1,0,0Z" transform="translate(35.409 6.045)" fill="#006095"/>
      <path id="Path_2544" data-name="Path 2544" d="M0,2.915H1.957V0A20.761,20.761,0,0,1,0,2.915Z" transform="translate(30.861 16.948)" fill="#6b9bb6"/>
      <rect id="Rectangle_3128" data-name="Rectangle 3128" width="3.454" height="1.727" transform="translate(29.363 22.454)" fill="#6b9bb6"/>
    </g>
    <rect id="Rectangle_3129" data-name="Rectangle 3129" width="52.18" height="52.18" fill="none"/>
  </g>
</svg>
